# xmcd CD database file
#
# Track frame offsets:
#	150
#	20982
#	37890
#	58072
#	76142
#	92550
#	111575
#	126350
#	145830
#	161242
#
# Disc length: 2388 seconds
#
# Revision: 0
# Processed by: cddbd v1.5.1PL0 Copyright (c) Steve Scherf et al.
# Submitted via: CDex 1.51
#
DISCID=8a09520a
DTITLE=薬師丸ひろ子 - ソング・ブックvol.2
DYEAR=1987
DGENRE=Pop
TTITLE0=セーラー服と機関銃
TTITLE1=元気を出して
TTITLE2=紫の花火
TTITLE3=すこしだけ　やさしく
TTITLE4=紅い花、青い花
TTITLE5=ささやきのステップ
TTITLE6=麦わら帽子のアン
TTITLE7=ローズ・ティーはいかが？
TTITLE8=ある日印象派
TTITLE9=メイン・テーマ
EXTD=YEAR: 1987
EXTT0=
EXTT1=
EXTT2=
EXTT3=
EXTT4=
EXTT5=
EXTT6=
EXTT7=
EXTT8=
EXTT9=
PLAYORDER=
